<?xml version="1.0" encoding="UTF-8"?>
<svg id="b" data-name="Layer 2" xmlns="http://www.w3.org/2000/svg" width="117.707mm" height="35.472mm" viewBox="0 0 333.659 100.549">
  <g id="c" data-name="Layer 1">
    <g>
      <path d="M206.996,78.633c-19.39,14.291-47.494,21.917-71.691,21.917-33.928,0-64.472-12.549-87.579-33.42-1.815-1.641-.189-3.878,1.989-2.6,24.938,14.51,55.772,23.238,87.624,23.238,21.481,0,45.112-4.444,66.839-13.667,3.282-1.394,6.027,2.149,2.818,4.532" fill="#fff" fill-rule="evenodd"/>
      <path d="M215.057,69.41c-2.469-3.166-16.383-1.496-22.628-.755-1.902.233-2.193-1.424-.479-2.615,11.082-7.799,29.266-5.548,31.387-2.933,2.12,2.629-.552,20.857-10.966,29.556-1.598,1.336-3.123.625-2.411-1.147,2.338-5.839,7.581-18.925,5.098-22.106" fill="#fff" fill-rule="evenodd"/>
      <path d="M192.864,10.98V3.399c0-1.147.871-1.917,1.917-1.917h33.943c1.089,0,1.961.784,1.961,1.917v6.492c-.015,1.089-.93,2.512-2.557,4.764l-17.589,25.112c6.536-.16,13.435.813,19.361,4.154,1.336.755,1.699,1.859,1.8,2.948v8.089c0,1.104-1.22,2.397-2.498,1.728-10.443-5.475-24.313-6.071-35.86.058-1.176.639-2.41-.639-2.41-1.743v-7.683c0-1.234.014-3.341,1.249-5.214l20.378-29.223h-17.734c-1.089,0-1.961-.77-1.961-1.902M69.047,58.285h-10.326c-.988-.072-1.772-.813-1.845-1.757V3.53c0-1.06.886-1.903,1.99-1.903h9.63c1.002.044,1.8.813,1.874,1.772v6.928h.188c2.513-6.696,7.234-9.818,13.595-9.818,6.463,0,10.5,3.122,13.406,9.818,2.498-6.696,8.177-9.818,14.263-9.818,4.328,0,9.063,1.786,11.953,5.795,3.268,4.459,2.6,10.936,2.6,16.615l-.014,33.449c0,1.06-.886,1.917-1.99,1.917h-10.312c-1.031-.072-1.859-.9-1.859-1.917v-28.09c0-2.236.203-7.814-.29-9.934-.77-3.558-3.079-4.56-6.071-4.56-2.499,0-5.112,1.67-6.173,4.343-1.06,2.672-.958,7.145-.958,10.152v28.09c0,1.06-.886,1.917-1.99,1.917h-10.312c-1.045-.072-1.859-.9-1.859-1.917l-.014-28.09c0-5.911.973-14.611-6.362-14.611-7.422,0-7.131,8.482-7.131,14.611v28.09c0,1.06-.886,1.917-1.99,1.917M259.907.509c15.322,0,23.616,13.158,23.616,29.89,0,16.166-9.165,28.99-23.616,28.99-15.047,0-23.238-13.159-23.238-29.557,0-16.499,8.293-29.323,23.238-29.323M259.994,11.329c-7.611,0-8.09,10.37-8.09,16.833s-.101,20.305,8.003,20.305c8.002,0,8.38-11.155,8.38-17.952,0-4.474-.189-9.818-1.54-14.059-1.162-3.69-3.471-5.127-6.753-5.127M303.391,58.285h-10.284c-1.031-.072-1.859-.9-1.859-1.917l-.014-53.013c.088-.973.944-1.728,1.99-1.728h9.571c.9.044,1.641.654,1.845,1.481v8.105h.188c2.89-7.248,6.943-10.704,14.074-10.704,4.634,0,9.15,1.67,12.055,6.245,2.702,4.241,2.702,11.372,2.702,16.499v33.362c-.116.93-.973,1.67-1.99,1.67h-10.356c-.944-.072-1.728-.77-1.83-1.67v-28.787c0-5.795.668-14.276-6.463-14.276-2.513,0-4.822,1.684-5.97,4.241-1.452,3.239-1.641,6.463-1.641,10.036v28.54c-.014,1.06-.915,1.917-2.019,1.917M165.805,32.97c0,4.023.102,7.378-1.931,10.951-1.641,2.905-4.256,4.691-7.146,4.691-3.965,0-6.289-3.021-6.289-7.48,0-8.801,7.887-10.399,15.367-10.399v2.237ZM176.219,58.139c-.683.61-1.67.654-2.44.247-3.428-2.847-4.052-4.169-5.926-6.884-5.664,5.78-9.687,7.509-17.022,7.509-8.7,0-15.454-5.359-15.454-16.092,0-8.38,4.532-14.088,11.01-16.877,5.606-2.469,13.434-2.905,19.419-3.588v-1.336c0-2.454.188-5.359-1.264-7.479-1.249-1.903-3.66-2.687-5.795-2.687-3.937,0-7.437,2.019-8.293,6.201-.175.93-.857,1.845-1.802,1.888l-10.007-1.075c-.842-.188-1.787-.871-1.54-2.164,2.295-12.142,13.275-15.802,23.093-15.802,5.025,0,11.59,1.336,15.555,5.141,5.025,4.692,4.546,10.951,4.546,17.763v16.092c0,4.836,2.004,6.957,3.892,9.571.654.93.799,2.048-.044,2.745-2.106,1.757-5.853,5.025-7.915,6.855l-.014-.029ZM30.428,32.97c0,4.023.102,7.378-1.931,10.951-1.641,2.905-4.241,4.691-7.147,4.691-3.964,0-6.274-3.021-6.274-7.48,0-8.801,7.887-10.399,15.352-10.399v2.237ZM40.842,58.139c-.683.61-1.67.654-2.44.247-3.428-2.847-4.038-4.169-5.926-6.884-5.665,5.78-9.673,7.509-17.022,7.509-8.686,0-15.454-5.359-15.454-16.092,0-8.38,4.546-14.088,11.009-16.877,5.606-2.469,13.435-2.905,19.419-3.588v-1.336c0-2.454.189-5.359-1.249-7.479-1.264-1.903-3.675-2.687-5.795-2.687-3.937,0-7.451,2.019-8.308,6.201-.174.93-.857,1.845-1.786,1.888l-10.022-1.075c-.842-.188-1.772-.871-1.54-2.164C4.038,3.66,15.003,0,24.822,0c5.025,0,11.59,1.336,15.555,5.141,5.025,4.692,4.546,10.951,4.546,17.763v16.092c0,4.836,2.004,6.957,3.892,9.571.668.93.813,2.048-.029,2.745-2.106,1.757-5.853,5.025-7.915,6.855l-.029-.029Z" fill="#fff" fill-rule="evenodd"/>
    </g>
  </g>
</svg>