<?xml version="1.0" encoding="UTF-8"?>
<svg id="b" data-name="Layer 2" xmlns="http://www.w3.org/2000/svg" width="110.665mm" height="75.249mm" viewBox="0 0 313.697 213.304">
  <g id="c" data-name="Layer 1">
    <g>
      <path d="M284.094,66.719c.144.055.465.089.93.089.476,0,.775-.033.896-.089.133-.066.199-.177.199-.343v-3.187h.609c.509,0,.874.111,1.129.332.255.221.465.609.653,1.173l.476,1.571c.033.122.066.21.122.277.055.077.133.122.232.166.1.033.221.066.387.077.155.011.365.022.62.022.288,0,.52-.011.686-.022.166-.011.299-.033.387-.055.089-.022.144-.066.166-.111.022-.055.033-.111.033-.177,0-.089-.055-.31-.155-.653l-.542-1.461c-.232-.575-.509-1.007-.819-1.295-.321-.288-.664-.498-1.029-.62.664-.166,1.195-.443,1.594-.852.398-.398.586-.963.586-1.693,0-.465-.077-.874-.243-1.217s-.409-.62-.741-.852c-.321-.221-.719-.387-1.184-.498-.465-.111-.996-.155-1.605-.155h-2.612c-.332,0-.587.089-.753.277-.166.188-.255.454-.255.786v8.167c0,.166.077.277.232.343ZM286.12,58.917h1.04c.321,0,.586.033.797.088.21.066.387.144.52.266.122.111.21.243.255.398.044.144.066.31.066.476,0,.387-.122.708-.354.952-.243.243-.686.365-1.328.365h-.996v-2.545Z" fill="#fff"/>
      <path d="M287.414,71.123c4.913,0,8.886-3.973,8.886-8.875s-3.973-8.886-8.886-8.886-8.875,3.984-8.875,8.886,3.973,8.875,8.875,8.875ZM287.414,55.144c3.807,0,6.883,3.176,6.883,7.105s-3.076,7.105-6.883,7.105-6.883-3.187-6.883-7.105,3.087-7.105,6.883-7.105Z" fill="#fff"/>
      <path d="M174.837,141.705c-4.061,19.178-.421,23.427,15.692,20.617-1.538-4.703-1.505-13.423,2.368-33.354,4.98-25.884,6.363-40.06,6.363-44.553,0-1.25-.575-3.198-4.593-3.198-5.4,0-8.931,1.284-12.018,2.91.421,1.527,1.737,12.461-7.813,57.578Z" fill="#fff"/>
      <path d="M217.94,163.018c8.167,0,15.648-5.677,20.893-12.04,0,0-.266,4.261.266,7.016.852,4.415,5.356,6.673,15.592,3.353-1.56-6.264-.797-21.513,3.287-43.336.907-4.836-.432-6.928-4.781-8.156-28.54-8.045-50.208,10.17-50.208,34.892,0,9.417,4.714,18.271,14.951,18.271ZM243.116,119.284c-1.505,15.781-7.746,31.55-17.562,31.55-4.017,0-6.916-3.176-6.916-8.444,0-13.556,10.79-27.533,24.479-23.106Z" fill="#fff"/>
      <path d="M166.116,107.698c-6.673,0-15.238,6.385-20.428,17.12.664-4.847,1.007-10.657.465-13.944-.177-1.062-.83-1.937-4.017-1.793-3.597.133-8.3,1.66-11.066,3.187,0,0,2.357,6.452-2.822,39.119-1.56,9.882,5.19,12.759,16.478,10.934-4.427-6.374,3.641-45.903,22.044-37.736,7.248-11.31,5.268-16.887-.653-16.887Z" fill="#fff"/>
      <path d="M204.483,46.911c-.166.454-.354.896-.553,1.328-.188.432-.398.852-.609,1.262-.221.41-.443.819-.686,1.206,0,.022-.011.033-.022.044-.232.376-.476.753-.719,1.107,23.516,5.19,48.471,14.099,66.365,27.002.764.553.089,1.605-.631,1.228-20.86-10.834-46.147-18.005-73.215-21.413-5.411,3.132-12.051,4.338-18.503,3.862v.011c75.317,5.046,120.645,39.341,120.391,69.64-.266,28.927-38.633,56.283-116.263,56.283-32.336,0-73.336-6.042-106.159-19.211-1.461-.587-2.147,1.516-.83,2.224,35.921,19.167,100.991,32.546,167.942,19.41.963-.188,1.284.73.398,1.096-22.254,9.008-53.052,14.121-84.735,14.121-77.033,0-139.491-32.28-139.491-72.108,0-28.706,32.469-53.495,79.445-65.103-1.228-1.948-2.213-3.973-2.977-6.02C38.5,74.908,0,102.22,0,134.003c0,43.8,70.138,79.301,156.666,79.301s157.031-36.32,157.031-81.105c0-39.938-45.881-73.757-109.213-85.288Z" fill="#fff"/>
      <path d="M99.741,87.037c-2.921.055-10.513.83-13.556,1.937-2.213,5.611-5.334,10.967-15.67,26.637-26.172,39.684-27.4,50.319-4.482,46.744-.553-3.597-.31-8.919,3.984-17.086,0,0,5.5-3.054,26.825-3.287,3.918,21.79,7.082,22,23.782,20.008-5.832-10.258-11.918-37.105-17.828-71.632-.443-2.534-.918-3.353-3.054-3.32ZM75.528,132.42c4.902-9.395,11.985-19.919,15.703-27.732.686,6.927,3.652,26.083,3.652,26.083-8.388-.166-15.106.786-19.355,1.649Z" fill="#fff"/>
      <path d="M155.471,53.462c-1.262.243-2.866,1.306-4.593,2.933-1.582,1.494-3.276,3.464-4.913,5.721-9.893,13.545-18.005,37.216,10.026,28.175,19.3-6.219,18.835-19.322,13.114-28.12-1.472-2.269-3.287-4.238-5.212-5.754-2.855-2.235-5.932-3.419-8.421-2.955Z" fill="#fff"/>
      <path d="M200.82,42.75c1.173-4.227.797-13.346-4.515-17.662-2.346,2.933-6.839,7.016-10.347,7.813C202.469,13.114,178.953-.453,164.49.012c-4.205.133-7.923,1.771-8.776,5.987-2.18,10.834,7.381,23.306,4.128,39.44-.985,4.88,5.699,9.694,14.01,11.387,2.778.144,5.544.332,8.3.575,8.089-.575,15.913-4.637,18.669-14.652Z" fill="#fff"/>
      <path d="M154.32,39.186c6.584.941-1.903-35.955-22.232-35.955-18.835,0-46.191,33.907-12.826,45.018-6.773.21-15.648-.421-20.76-2.711-2.733,2.744-2.844,9.672-.166,16.367.808,2.014,1.87,4.006,3.187,5.854,1.472,2.069,3.254,3.951,5.367,5.5,16.998,12.284,30.62-1.782,35.279-10.967,1.25-2.446,1.848-4.537,1.715-5.699-.033-.299-.111-.542-.255-.708-5.943-7.171-1.859-18.492,10.69-16.699Z" fill="#fff"/>
    </g>
  </g>
</svg>