<?xml version="1.0" encoding="UTF-8"?>
<svg id="b" data-name="Layer 2" xmlns="http://www.w3.org/2000/svg" width="114.753mm" height="46.325mm" viewBox="0 0 325.284 131.314">
  <g id="c" data-name="Layer 1">
    <path d="M0,.691h50.585l2.397.064,2.356.223,2.318.326,2.279.468,2.195.61,2.155.712,2.073.832,2.013.936,1.929,1.056,1.854,1.142,1.747,1.258,1.687,1.344,1.562,1.447,1.487,1.524,1.382,1.605,1.262,1.691,1.135,1.768,1.039,1.833.912,1.889.775,1.949.65,2.021.509,2.069.365,2.125.204,2.151.06,2.215-.081,2.241-.264,2.257-.425,2.297-.588,2.322-.777,2.339-.955,2.361-1.138,2.378,3.211,2.236,2.867,2.442,2.541,2.601,2.236,2.751,1.932,2.884,1.648,2.992,1.32,3.086,1.058,3.18.751,3.228.489,3.296.223,3.314-.06,3.331-.305,3.348-.549,3.314-.792,3.267-1.036,3.236-1.279,3.172-1.507,3.078-1.712,2.962-1.949,2.876-2.131,2.717-2.341,2.588-2.539,2.425-2.726,2.215-2.91,2.035-3.086,1.803-3.253,1.571-3.415,1.343-3.58,1.06-3.722.764-3.882.498-4.005.159H0V.691h0ZM243.966,46.215h43.099l1.953.039,1.948.163,1.884.249,1.902.322,1.824.442,1.811.515,1.785.609,1.73.691,1.683.768,1.653.841,1.605.931,1.545,1,1.502,1.082,1.447,1.133,1.382,1.198,1.344,1.283,1.258,1.322,1.202,1.403,1.141,1.442,1.073,1.507.992,1.567.919,1.61.858,1.648.768,1.683.669,1.751.61,1.769.515,1.837.442,1.85.326,1.872.244,1.91.164,1.953.038,1.949v45.361h-29.127v-2.283l-1.49.661-1.481.584-1.528.506-1.523.476-1.524.386-1.567.317-1.545.283-1.567.206-1.558.142-1.571.103-1.566.017-1.563-.017-1.549-.103-1.545-.142-1.545-.206-1.523-.258-1.524-.331-1.481-.369-1.49-.446-1.442-.485-1.438-.528-1.408-.614-1.382-.648-1.339-.691-1.327-.773-1.283-.816-1.232-.85-1.228-.919-1.151-.97-1.12-1.021-1.078-1.065-1.034-1.112-.914-1.082-.863-1.116-.79-1.159-.751-1.185-.712-1.193-.627-1.228-.592-1.254-.545-1.279-.476-1.283-.421-1.327-.382-1.326-.335-1.339-.262-1.339-.202-1.365-.159-1.361-.107-1.365-.06-1.382v-1.361l.06-1.386.12-1.356.167-1.391.202-1.361.292-1.343.317-1.339.386-1.327.429-1.318.489-1.283.545-1.279.61-1.262.657-1.24.704-1.202.76-1.18h-4.129v-31.527h0ZM270.235,89.091l.077,1.442.206,1.344.3,1.24.451,1.163.549,1.077.631.974.73.876.794.79.872.712.935.614.996.507,1.039.433,1.06.322,1.095.24,1.12.15,1.116.056,1.12-.039,1.116-.146,1.095-.223,1.056-.326,1.043-.425.974-.506.957-.614.867-.708.799-.815.738-.897.627-.996.545-1.094.429-1.181.326-1.283.197-1.382.082-1.49-.082-1.485-.197-1.378-.326-1.287-.429-1.176-.545-1.077-.627-.996-.738-.876-.799-.794-.867-.691-.957-.605-.974-.489-1.043-.412-1.056-.3-1.095-.223-1.116-.103-1.12-.043-1.116.086-1.12.159-1.095.262-1.06.348-1.039.425-.996.549-.935.61-.872.73-.794.798-.73.919-.631.974-.549,1.077-.451,1.159-.3,1.258-.206,1.344-.077,1.425h0ZM144.713,46.215h8.802v-4.335l.058-1.97.167-1.974.283-1.974.408-1.931.487-1.932.61-1.893.693-1.871.811-1.829.897-1.811.993-1.773,1.079-1.704,1.178-1.687,1.236-1.627,1.343-1.588,1.421-1.524,1.506-1.464,1.567-1.408,1.648-1.322,1.704-1.279,1.773-1.181,1.85-1.12,1.91-1.034,1.953-.957,2.035-.876,2.069-.794,2.133-.669,2.181-.614,2.211-.485,2.257-.386,2.318-.283,2.335-.163,2.382-.064h4.314v23.333l.609-1.404.674-1.365.682-1.322.738-1.279.79-1.219.811-1.202.88-1.159.91-1.099.931-1.078.996-1.013,1.043-.983,1.073-.931,1.12-.897,1.159-.854,1.197-.794,1.262-.773,1.283-.712,1.344-.669,1.361-.61,1.425-.588,1.455-.532,1.511-.489,1.545-.447,1.606-.407,1.627-.344,1.691-.309,1.725-.262,1.769-.202,1.807-.164,1.854-.124,1.889-.081,1.948-.022h4.314v29.068l-.996.022-.978.06-.957.082-.953.107-.923.159-.888.185-.889.206-.862.24-.829.279-.811.309-.773.343-.756.391-.73.403-.712.451-.669.472-.627.481-.614.549-.588.575-.528.584-.515.631-.476.648-.434.695-.407.734-.369.751-.322.773-.283.815-.245.85-.202.858-.146.914-.12.936-.06.957-.043.996h10.001v31.527h-10.001v52.173h-31.106v-52.173h-13.903v52.173h-31.128v-52.173h-8.802v-31.527h0ZM200.665,29.883l-.858.103-.854.12-.833.159-.833.185-.794.206-.773.223-.773.266-.734.279-.708.326-.695.326-.674.369-.648.403-.627.429-.588.446-.596.472-.523.481-.528.532-.489.571-.464.571-.433.609-.408.627-.365.653-.348.695-.296.691-.266.747-.249.764-.202.781-.159.798-.15.837-.094.876-.06.863v.923h13.903v-5.078l.043-.781.043-.777.056-.742.082-.756.086-.777.099-.751.142-.751.142-.751.167-.738.159-.747.189-.751.214-.738.206-.73.236-.734.258-.73h0ZM107.14,46.215h31.104v83.7h-31.104V46.215h0ZM31.574,26.033h19.234l1.138.065,1.036.185.955.262.876.369.792.447.691.549.629.609.528.67.47.734.384.79.305.837.223.876.164.897.081.91v.94l-.039.957-.144.931-.18.94-.247.91-.324.919-.386.854-.448.829-.487.803-.569.73-.609.691-.672.609-.71.528-.775.468-.83.369-.876.262-.916.164-.974.06h-18.318v-20.161h0ZM31.574,70.87h23.318l.693.013.652.065.648.098.629.129.59.185.588.202.569.219.53.262.528.292.49.322.465.348.47.386.427.386.403.429.389.446.365.447.348.494.326.506.303.507.285.528.243.549.243.554.204.562.186.575.161.584.139.592.127.614.101.584.079.605.041.614.022.614.019.588-.019.717-.062.708-.062.708-.099.695-.122.67-.125.678-.161.648-.202.648-.206.635-.223.605-.262.61-.266.592-.307.545-.302.549-.345.537-.367.485-.384.485-.389.468-.425.429-.451.407-.447.386-.485.343-.509.331-.509.283-.549.258-.549.253-.569.18-.59.185-.614.112-.627.107-.65.043-.651.022h-23.054v-27.621h0ZM123.099,0l1.079.025,1.076.082,1.039.137,1.036.185,1.015.249,1,.279.974.327.953.365.936.425.893.472.878.506.857.549.83.588.794.614.749.67.736.691.691.734.672.773.627.794.588.811.532.858.509.872.464.914.427.94.388.953.327.957.283.996.225,1.017.18,1.039.144,1.056.082,1.056.021,1.077-.021,1.078-.082,1.06-.144,1.056-.18,1.039-.225,1.018-.283,1-.327.974-.388.936-.427.936-.464.914-.509.876-.532.854-.588.833-.627.794-.672.751-.691.734-.736.691-.749.665-.794.618-.83.588-.857.549-.878.502-.893.476-.936.421-.953.369-.974.348-1,.283-1.015.227-1.036.18-1.039.138-1.076.086-1.079.017-1.075-.017-1.058-.086-1.056-.138-1.018-.18-1.017-.227-.996-.283-.974-.348-.959-.369-.934-.421-.895-.476-.893-.502-.852-.549-.816-.588-.792-.618-.774-.665-.71-.691-.713-.734-.648-.751-.631-.794-.588-.833-.551-.854-.509-.876-.468-.914-.408-.936-.384-.936-.326-.974-.284-1-.244-1.018-.182-1.039-.123-1.056-.079-1.06-.043-1.078.043-1.077.079-1.056.123-1.056.182-1.039.244-1.017.284-.996.326-.957.384-.953.408-.94.468-.914.509-.872.551-.858.588-.811.631-.794.648-.773.713-.734.71-.691.774-.67.792-.614.816-.588.852-.549.893-.506.895-.472.934-.425.959-.365.974-.327.996-.279,1.017-.249,1.018-.185,1.056-.137,1.058-.082,1.075-.025h0Z" fill="#fff" fill-rule="evenodd"/>
  </g>
</svg>