<?xml version="1.0" encoding="UTF-8"?>
<svg id="b" data-name="Layer 2" xmlns="http://www.w3.org/2000/svg" width="107.423" height="34.958" viewBox="0 0 107.423 34.958">
  <g id="c" data-name="Layer 1">
    <g>
      <g>
        <path d="M3.134,14.474C6.218,8.768,11.545,2.544,17.837.467c1.292-.322,3.01-.685,4.156.199,1.019.755,1.156,2.047.925,3.21-.302,1.375-1.245,3.116-2.82,3.338-.283,0-.524-.101-.708-.3-.41-.399-.38-.98-.293-1.505.259-1.091,1.27-2.251,2.434-2.403.199-.127.115-.368.059-.538-.155-.242-.339-.427-.622-.485-1.262-.147-2.215.645-3.182,1.308-3.67,2.952-6.336,6.745-8.576,10.525-1.828,3.399-3.386,6.911-3.84,10.882-.223,2.879.69,5.705,3.252,7.09,2.775,1.471,6.368.476,9.151-.281l2.556-.785,4.913-1.458c4.658-1.36,10.489-1.666,15.037.137,2.748,1.145,5.58,2.715,7.372,5.417,0,.071,0,.156-.086.141-3.898-1.063-8.972-2.116-12.838-.272l-.184-.043c-1.171-1.877-3.153-2.919-5.181-3.324-6.552-.633-11.939,2.469-18.098,3.243-3.122.287-6.469.19-8.646-2.2-3.435-3.431-3.031-9.487-1.4-13.624.53-1.459,1.187-2.876,1.916-4.264Z" fill="#f9f9f9"/>
        <path d="M12.178,16.52c1.628-2.988,4.123-6.639,7.574-7.734.923-.21,1.916-.121,2.623.492,1.485,1.48.908,4.018.406,5.76,0,.1.085.213.184.228,1.319-.038,2.385-.658,3.339-1.563,2.051-2.291,4.246-5.291,7.578-4.939.624.102,1.233.458,1.557,1.041.845,1.677.017,3.532-1.137,4.819-.442.424-.996.749-1.634.548-.255-.086-.467-.342-.565-.598-.237-1.178.448-2.268,1.4-2.889.271-.268,1.093-.082.868-.692-.17-.242-.425-.271-.694-.272-1.619.676-2.675,2.332-3.616,3.719-1.184,1.855-2.141,3.823-2.772,5.906-.173.752-.389,1.729.048,2.426.324.44.863.627,1.417.487,1.605-.633,3.014-1.919,4.238-3.248,2.807-3.366,4.296-7.532,8.051-10.271,1.166-.805,2.814-1.423,4.216-.681.226.086.41.384.694.272.227-.226.385-.708.839-.593,1.036.018,2.228-.035,3.291.068l.071.099-.3.722-5.829,11.84c-.057.127-.072.298-.044.44.099.17.311.157.467.101.839-.48,1.494-1.371,2.079-2.121.513-.708.969-1.444,1.341-2.223.157-.227.342-.509.654-.466.326.044.738-.097.979.131-.372.992-.957,1.897-1.471,2.832-1.583,2.434-3.65,5.265-6.561,5.992-.482.055-1.078.096-1.446-.26-.566-.427-.592-1.108-.746-1.719-.057-.072-.156-.086-.241-.058-1.238,1.117-2.519,2.233-4.263,2.014-.538-.115-1.048-.528-1.287-1.04-.451-.867-.234-1.987-.26-2.952-.042-.114-.184-.071-.241-.029-1.893,1.866-3.942,3.547-6.454,4.021-1.164.138-2.17-.206-2.947-1.032-1.878-2.461-.392-5.69.596-8.084.043-.113.029-.27-.112-.298-.681.054-1.334.165-1.987.262l-.228.255c-1.528,2.832-3.184,5.833-5.929,7.938-1.138.819-2.828,1.381-4.159.624-1.387-.955-1.509-2.658-1.333-4.232.332-1.786.977-3.444,1.748-5.044ZM16.519,16.379c-.8,1.614-1.614,3.243-1.649,5.158.084.355.295.767.692.868.425.115.781-.111,1.108-.322,1.565-1.314,2.65-3.112,3.535-4.84.072-.17.2-.382.101-.567-.935-.372-1.841-1.014-2.561-1.825l-.156-.029c-.142.028-.199.169-.299.268l-.771,1.288ZM18.957,13.096c.054.851.845,1.592,1.597,1.878.184.057.482.2.639-.026.285-.538.458-1.133.602-1.729.145-.78.262-1.829-.489-2.342-.255-.143-.638-.158-.908-.032-.853.423-1.466,1.286-1.441,2.251ZM38.17,19.702c-.216.709-.544,1.473-.32,2.254.07.156.24.271.396.313.639.016,1.066-.564,1.479-1.017,1.868-2.589,3.296-5.379,4.582-8.212.215-.595.557-1.147.545-1.814-.014-.142-.155-.241-.268-.313-.283-.129-.553.069-.781.182-2.517,1.935-3.875,4.711-5.133,7.345l-.5,1.261Z" fill="#f9f9f9"/>
        <path d="M50.296,12.424c.557-1.104,1.029-2.252,1.728-3.299.284-.311.724-.296,1.107-.337l2.794.038.113.114c-.472,1.119-.986,2.223-1.572,3.3-.143.283-.442.552-.768.593-1.135.024-2.341.091-3.419-.012-.113-.114-.013-.269.016-.397Z" fill="#f9f9f9"/>
        <path d="M53.099,18.094c1.944-4.022,4.283-7.901,7.6-11.323,3.218-3.209,6.702-5.807,10.918-6.601,1.15-.166,2.44-.062,3.317.721.17.142.368.285.609.2,3.026-1.21,7.226-1.635,10.257-.121,1.756.858,3.426,1.955,5.111,3.011.213.114.112.341-.001.468-.969,1.075-1.781,2.178-2.65,3.296-.1.099-.256.056-.354-.001l-4.458-3.065c-2.081-1.411-4.475-2.399-7.186-1.954-.298.155-.158.525-.201.808.061,2.781-.926,5.203-2.267,7.412-1.07,1.543-2.309,3.155-4.127,3.674-.795.168-1.56-.076-2.041-.716-1.326-2.019-.155-4.483.816-6.282,1.113-1.953,2.836-3.792,4.7-5.204.043-.071.128-.141.072-.227-.184-.185-.496-.073-.723-.031-3.025,1.011-5.446,3.684-7.682,6.215-3.989,4.908-7.015,10.232-8.737,16.085-.533,2.197-1.253,5.571.983,7.11,1.968,1.057,3.86-.299,5.339-1.57,2.249-2.291,3.762-4.938,4.382-7.929.102-.893.348-2.112-.473-2.725-.737-.329-1.349.279-1.847.788-1.154,1.386-1.641,3.044-1.846,4.831-.512.424-1.123.691-1.664,1.101-1.024.706-2.034,1.653-2.846,2.601-.1.028-.114-.086-.142-.143-.116-3.292,1.057-6.111,2.867-8.644,1.439-1.669,3.288-3.095,5.527-2.563.978.258,1.627,1.296,1.809,2.219.358,3.094-.942,5.799-2.342,8.319-2.254,3.539-5.812,7.115-10.322,6.689-1.73-.105-3.344-1.302-4.076-2.893-1.705-3.397-.526-7.762.62-11.049l1.058-2.507ZM68.44,12.232c.042.383.196.795.593.938.765.216,1.377-.35,1.946-.788,2.051-2.163,3.293-4.67,3.616-7.549.001-.425.145-.964-.095-1.334-.17-.029-.355.042-.497.14-1.379.917-2.675,2.261-3.616,3.619-.984,1.515-1.883,3.072-1.946,4.973Z" fill="#f9f9f9"/>
        <path d="M71.315,21.86c1.639-2.165,3.818-4.526,6.571-4.701.695.017,1.304.303,1.727.886,1.172,1.735.185,3.958-.247,5.716-.043.156.07.27.183.313.568.087,1.22.005,1.718-.249l.213-.269c1.978-5.639,4.918-10.878,8.41-15.873,2.181-2.886,4.971-5.87,8.211-7.263.767-.267,1.875-.589,2.61-.019.82.669.59,1.832.374,2.725-.088.794-.968.876-1.55,1.059-.029-.015-.057,0-.085-.029.016-.511.287-.963.388-1.46.029-.27.073-.496-.04-.752-.141-.256-.453-.172-.666-.101-1.095.535-1.977,1.511-2.818,2.459-3.133,3.635-5.403,7.67-7.488,11.748-.686,1.416-1.4,2.818-1.958,4.291-.015.085.014.142.084.199.483-.012.768-.508,1.137-.762,2.761-2.502,4.998-5.374,7.065-8.288.441-.212.951-.21,1.462-.251l.099.029c-.029.397-.371.708-.557,1.062-2.31,3.326-4.931,6.508-8.119,9.406l-2.305,1.893c-.484.424-.5,1.076-.743,1.614-.445,1.46-.89,2.947-.952,4.55.013.269.112.525.338.668.609.272,1.093-.308,1.52-.704,3.12-3.607,4.497-8.028,8.309-11.263,1.252-.988,2.9-1.834,4.515-1.091.283.1.495.47.836.301.241-.17.257-.552.598-.537,1.121-.01,2.313-.049,3.39.04.099.086.028.227-.001.326l-.771,1.558-4.771,9.63c-.214.439-.5.906-.473,1.403.07.213.297.228.482.186.896-.494,1.551-1.314,2.135-2.149.585-.821,1.056-1.684,1.612-2.519.298-.141.709-.082,1.036-.039.198.185-.058.425-.101.638-1.401,2.903-3.355,6.074-6.41,7.681-.711.352-1.691.675-2.469.247-.623-.428-.563-1.208-.845-1.804-.057-.085-.199-.072-.27-.029-1.266,1.131-2.633,2.403-4.404,1.914-1.105-.514-1.228-1.792-1.31-2.884-.057-.043-.028-.128-.098-.171l-.142.056c-1.239,1.485-2.807,3.338-4.891,3.161-.794-.059-1.487-.828-1.725-1.538-.73-2.315.045-4.852.564-7.077,0-.128-.141-.256-.254-.271l-1.745.022-.285.326c-1.286,2.52-2.698,4.956-4.919,7.062-1.167,1.032-2.603,1.892-4.204,1.418-1.331-.572-1.681-2.02-1.676-3.382.281-3.432,1.823-6.335,3.706-9.109ZM71.771,29.565c.026.482.266.98.762,1.138.326.114.681-.026.965-.167,1.636-1.214,2.607-3.083,3.492-4.782.086-.17.158-.439-.069-.568-.85-.428-1.67-1.098-2.348-1.852-.085-.086-.241-.1-.34-.044-.613.821-1.014,1.727-1.442,2.634-.486,1.148-1.015,2.28-1.02,3.643ZM75.884,21.606c.054.865.746,1.676,1.54,1.963.156.057.439.129.553-.069.486-1.105.945-2.366.694-3.643-.098-.299-.353-.597-.664-.698-.312-.086-.639.012-.908.139-.796.522-1.183,1.386-1.214,2.308ZM91.519,29.179c-.03.411-.131.922.18,1.235.169.171.439.186.652.116.839-.437,1.381-1.329,1.894-2.065,1.711-2.661,2.97-5.508,4.143-8.398.044-.255.116-.61-.125-.781-.694-.329-1.236.436-1.748.803-2.263,2.248-3.464,4.967-4.595,7.701l-.402,1.389Z" fill="#f9f9f9"/>
        <path d="M94.827,8.025l1.51-1.953.228-.198c4.37-.084,7.783-2.682,10.858-5.75-.015.412-.201.794-.344,1.162-2.016,4.745-6.911,8.913-12.203,8.98l-1.248-.019c-.227-.057-.07-.284-.013-.397l1.212-1.826Z" fill="#f9f9f9"/>
      </g>
      <path d="M100.338,33.071c0-.594.448-1.042,1.021-1.042.567,0,1.014.448,1.014,1.042,0,.603-.447,1.048-1.014,1.048-.574,0-1.021-.444-1.021-1.048ZM101.359,34.328c.683,0,1.266-.53,1.266-1.256,0-.72-.583-1.25-1.266-1.25-.69,0-1.273.53-1.273,1.25,0,.726.584,1.256,1.273,1.256ZM101.094,33.171h.252l.381.626h.246l-.412-.636c.213-.027.375-.14.375-.398,0-.285-.169-.411-.511-.411h-.551v1.446h.219v-.626ZM101.094,32.985v-.447h.299c.152,0,.315.033.315.212,0,.222-.166.235-.352.235h-.262Z" fill="#f9f9f9"/>
    </g>
  </g>
</svg>