<?xml version="1.0" encoding="UTF-8"?>
<svg id="b" data-name="Layer 2" xmlns="http://www.w3.org/2000/svg" width="105.173" height="27.504" viewBox="0 0 105.173 27.504">
  <g id="c" data-name="b">
    <g id="d" data-name="D7nJt9.tif">
      <path d="M21.643,12.29c.022-2.568.561-4.665,1.71-6.576,1.435-2.388,3.454-4.109,6.094-5.057,1.026-.364,2.086-.561,3.179-.605,2.73-.112,5.175.678,7.333,2.338,1.587,1.222,2.775,2.77,3.582,4.608.499,1.138.841,2.315.97,3.549.292,2.786-.235,5.399-1.704,7.804-1.267,2.069-2.999,3.622-5.214,4.608-1.261.566-2.596.863-3.986.919-2.013.084-3.908-.342-5.69-1.284-1.62-.858-2.949-2.046-4.014-3.532-1.093-1.531-1.783-3.229-2.086-5.079-.107-.662-.14-1.346-.174-1.693ZM33.108,6.751c-.953-.034-1.839.224-2.618.757-1.85,1.256-2.624,3.022-2.349,5.231.269,2.153,1.861,3.908,3.964,4.334,1.861.381,3.47-.168,4.721-1.592,1.273-1.452,1.609-3.156,1.104-5.023-.566-2.114-2.601-3.779-4.821-3.706h0ZM83.246,23.317c.09-.308.163-.566.241-.819.785-2.579,1.575-5.158,2.366-7.737.919-2.999,1.839-5.993,2.753-8.993.482-1.57.964-3.14,1.424-4.715.09-.297.219-.42.538-.415,2.444.022,4.894.028,7.344.028.213,0,.269.101.32.263.37,1.205.746,2.405,1.116,3.605.83,2.674,1.665,5.343,2.495,8.017.802,2.596,1.598,5.192,2.4,7.787.28.903.566,1.8.847,2.697.028.084.05.174.084.297-.174.006-.32.022-.465.022-2.102-.011-4.205-.022-6.307-.028-.516,0-.521,0-.645-.505-.235-.97-.477-1.94-.701-2.91-.045-.191-.118-.264-.314-.264-1.559,0-3.117-.017-4.681-.022-.095,0-.185.017-.28.022q-.583.045-.723.622c-.23.931-.471,1.861-.69,2.798-.056.23-.151.286-.387.275-.662-.028-1.323-.022-1.99-.028h-4.743,0ZM95.715,14.229c-.538-2.388-1.071-4.732-1.598-7.07-.028.006-.05.006-.078.011-.544,2.349-1.093,4.693-1.643,7.064,1.116-.006,2.198-.006,3.319-.006h0ZM19.636,3.555c-1.514,1.575-3.011,3.128-4.513,4.693-.264-.213-.499-.415-.751-.605-1.906-1.424-4.648-1.183-6.352.499-1.889,1.867-2.136,5.063-.381,7.193,1.861,2.259,5.051,2.45,7.148.583.084-.073.174-.14.28-.23.51.533,1.009,1.054,1.514,1.575.936.976,1.867,1.951,2.809,2.921.163.163.129.264-.017.409-1.643,1.648-3.611,2.685-5.898,3.095-2.641.471-5.147.056-7.485-1.284-2.613-1.491-4.379-3.711-5.332-6.548-.998-2.966-.852-5.92.37-8.802.628-1.48,1.536-2.775,2.691-3.885C5.273,1.671,7.112.679,9.231.242c2.579-.538,5.051-.168,7.395,1.02,1.071.544,2.013,1.273,2.87,2.114.045.045.078.095.14.179ZM49.031,25.538c.684-.6,1.374-1.127,1.979-1.744,1.065-1.076,1.839-2.321,2.013-3.874.118-1.065-.084-2.08-.583-3.005-.533-.992-1.155-1.934-1.76-2.887-.79-1.239-1.503-2.512-1.788-3.981-.32-1.648-.163-3.246.415-4.816.6-1.626,1.542-3.011,2.792-4.205.196-.185.404-.359.605-.538.174-.157.376-.213.611-.213,2.568.006,5.141.006,7.709.006.09,0,.179.006.292.067-.263.191-.533.376-.79.577-1.189.925-2.243,1.973-2.904,3.353-.953,1.985-1.065,4.025-.123,6.032.544,1.161,1.239,2.254,1.895,3.353.841,1.396,1.598,2.826,1.901,4.451.286,1.536.095,3.011-.583,4.418-.88,1.822-2.198,3.274-3.801,4.479-.824.617-.824.583-1.828.286-1.917-.566-3.835-1.11-5.758-1.659-.084-.034-.191-.073-.292-.101h0ZM70.178,14.964c0-2.596.011-5.192-.006-7.793-.006-.645.101-.555-.544-.561-1.245-.006-2.484-.006-3.728-.006-.168,0-.303.011-.303-.241.017-1.822.022-3.644.022-5.466,0-.224.073-.286.292-.286,5.035.011,10.069.017,15.104.017.269,0,.342.078.342.348-.011,1.783-.011,3.566,0,5.354,0,.252-.078.314-.32.314-1.306-.011-2.618,0-3.924-.011-.247,0-.314.067-.314.314.006,2.315-.011,4.631-.011,6.952,0,1.245.006,2.484,0,3.728-.006,1.25-.022,2.5-.028,3.756,0,.549.011,1.099.028,1.654.011.224-.073.286-.292.286-1.738-.011-3.476-.017-5.214-.022-.297,0-.6.006-.897.017-.168.006-.23-.05-.23-.224.006-1.766,0-3.532,0-5.298v-2.831h.022,0Z" fill="#f9f9f9"/>
    </g>
  </g>
</svg>