<?xml version="1.0" encoding="UTF-8"?>
<svg id="b" data-name="Layer 2" xmlns="http://www.w3.org/2000/svg" width="190.295mm" height="26.913mm" viewBox="0 0 539.419 76.288">
  <g id="c" data-name="Layer 1">
    <g>
      <path d="M94.86,0l-17.233,23.416h93.924c4.75,0,4.69,1.788,2.369,4.951-2.357,3.198-6.301,8.729-8.705,11.986-1.22,1.646-3.423,4.643,3.873,4.643h38.411l11.382-15.468C225.94,19.946,219.496.012,194.256.012l-99.396-.012Z" fill="#fff"/>
      <path d="M70.651,76.288l34.621-47.045h42.959c4.75,0,4.69,1.8,2.369,4.951l-8.765,11.939c-1.22,1.646-3.423,4.643,3.873,4.643h57.539c-4.773,6.562-20.313,25.512-48.17,25.512h-84.425ZM268.898,50.764l-18.773,25.524h-49.521l18.773-25.524h49.521ZM344.749,44.984h-121.107L256.758,0h49.497l-18.974,25.797h22.089L328.368,0h49.497l-33.116,44.984ZM340.496,50.764l-18.773,25.524h-49.497l18.773-25.524h49.497ZM0,60.832h72.936l-3.98,5.413H0v-5.413ZM0,50.764h80.351l-3.991,5.413H0v-5.413ZM0,70.899h65.534l-3.968,5.389H0v-5.389ZM539.419,66.245h-72.676l3.992-5.413h68.684v5.413ZM539.419,76.288h-80.055l3.956-5.389h76.099v5.389ZM478.138,50.764h61.282v5.425h-65.261l3.98-5.425ZM446.419,0l-33.116,44.984h-52.458L393.985,0h52.434ZM356.605,50.764s-3.612,4.951-5.377,7.32c-6.206,8.409-.723,18.193,19.567,18.193h79.498l18.773-25.512h-112.46Z" fill="#fff"/>
    </g>
  </g>
</svg>