<?xml version="1.0" encoding="UTF-8"?>
<svg id="b" data-name="Layer 2" xmlns="http://www.w3.org/2000/svg" width="122.348mm" height="36.191mm" viewBox="0 0 346.813 102.588">
  <g id="c" data-name="Layer 1">
    <g>
      <path d="M340.72,79.746c.072.028.232.044.464.044.238,0,.387-.017.447-.044.066-.033.099-.088.099-.171v-1.591h.304c.254,0,.436.055.563.166.127.11.232.304.326.586l.238.784c.017.061.033.105.061.138.028.039.066.061.116.083.05.017.11.033.193.039.077.006.182.011.309.011.144,0,.26-.006.343-.011.083-.006.149-.017.193-.028.044-.011.072-.033.083-.055.011-.028.017-.055.017-.088,0-.044-.028-.155-.077-.326l-.271-.729c-.116-.287-.254-.503-.409-.646-.16-.144-.331-.249-.514-.309.331-.083.597-.221.796-.425.199-.199.293-.481.293-.845,0-.232-.039-.436-.122-.608s-.204-.309-.37-.425c-.16-.11-.359-.193-.591-.249-.232-.055-.497-.077-.801-.077h-1.304c-.166,0-.293.044-.376.138-.083.094-.127.227-.127.392v4.077c0,.083.039.138.116.171ZM341.731,75.851h.519c.16,0,.293.017.398.044.105.033.193.072.26.133.061.055.105.122.127.199.022.072.033.155.033.238,0,.193-.061.354-.177.475-.122.122-.343.182-.663.182h-.497v-1.271Z" fill="#fff"/>
      <path d="M342.377,81.944c2.453,0,4.436-1.983,4.436-4.431s-1.983-4.436-4.436-4.436-4.431,1.989-4.431,4.436,1.983,4.431,4.431,4.431ZM342.377,73.967c1.9,0,3.436,1.585,3.436,3.547s-1.536,3.547-3.436,3.547-3.436-1.591-3.436-3.547,1.541-3.547,3.436-3.547Z" fill="#fff"/>
      <path d="M275.848,25.15l5.862,42.253c-1.218,4.303-4.364,8.045-6.172,12.178-.158.336-.403.512-.777.544-1.013.085-7.07-4.173-8.514-4.762l-7.172-50.647c-.277-1.054-.84-2.462-1.513-3.311-.588-.742-2.579-1.795-2.591-1.957-.036-.483.817-1.65.674-2.374l1.036.061,19.167,8.015Z" fill="#fff"/>
      <path d="M231.147,9.065l.994,42.585c.284,1.388.313,3.012.82,4.326.707,1.832,3.701,3.31.983,5.146l-22.041-6.119c-.25-3.308.482-2.373,2.217-3.388,2.356-1.378,1.356-5.909,1.279-8.15l-9.307-2.132,2.155-4.021,7.183.98-.981-28.805c.099-1.084,1.099-4.062,2.337-3.948l14.36,3.526Z" fill="#fff"/>
      <path d="M0,52.824c5.358-3.678,10.526-7.686,16.048-11.129.838-.522,3.323-2.446,3.989-1.8,1.822,1.766-.438,3.097-.493,5-.028.978.448,1.894.746,2.795,5.254,9.745,13.083,19.078,18.182,28.776,2.384,4.534,2.997,8.636,1.086,13.503-1.49,3.794-5.196,7.658-8.86,9.389-.468-.091-2.642-3.476-2.694-4.029-.054-.574.469-1.252.536-1.908.188-1.858-.263-3.575-1.207-5.173-7.063-9.555-12.807-21.502-20.055-30.762-.847-1.082-1.443-2.171-2.891-2.579-2.207-.621-4.377,1.873-4.385-2.085Z" fill="#fff"/>
      <path d="M99.621,7.116l11.144,43.371c1.145,1.914,2.904,1.351,3.309,1.676.174.139.784,2.72-.182,2.79l-21,5.852c-.013-.833-.543-1.849-.337-2.669.083-.33.742-.383.98-.692.795-1.033,1.172-2.198.929-3.519-2.654-9.821-4.997-19.749-7.778-29.534-.642-2.26-1.656-7.807-3.534-9.009-1.046-.669-2.483-.428-2.765-.611-.11-.071-.764-2.419-.685-2.523.614-.825,17.55-4.799,19.919-5.131Z" fill="#fff"/>
      <path d="M313.78,50.928c4.211-.388,8.961,1.009,12.282,3.629.065.28-2.202,3.368-2.572,3.524-.934.394-3.108-1.401-5.767.327-5.452,3.541.322,11.067,2.19,15.146,2.888,6.304,5.875,11.84,2.471,18.783-4.959,10.112-17.125,11.019-25.565,4.656.601-.757,1.932-3.104,2.789-3.334,1.531-.413,3.736,1.922,6.503-.549,5.92-5.288-3.971-16.859-5.539-22.727-2.485-9.3,3.559-18.563,13.21-19.454Z" fill="#fff"/>
      <path d="M164.935.015l.322,49.534-19.301.322c.122-.623-.211-2.111.053-2.525.079-.124,1.71-.659,2.348-1.671,1.455-2.309.507-4.313.482-6.567-.099-8.946-.181-17.81-.627-26.712-.118-2.352.547-6.612-1.271-8.378-1.453-1.412-3.241,0-2.594-3.681L164.935.015Z" fill="#fff"/>
      <path d="M119.584,27.998c-.294.133-1.302.2-1.29.482.306.585,1.184-.156,1.29-.161,2.754-.127,6.663.755,8.68,2.738,3.929,3.862,2.836,14.047,7.828,16.294,1.047.471,2.999.473,3.112.587.117.118.549,3.207-.488,2.892-6.708-.126-16.246,4.938-20.326-2.823-1.868-3.553-2.51-10.708-4.963-13.37-1.759-1.909-4.439-.573-5.039-1.716-.113-.215-.687-2.972-.65-3.127.103-.441,2.256-1.195,2.982-2.137,3.049-3.951.777-16.727-5.163-17.33-.732-.074-2.577.376-2.686.297-.175-.127-1.138-3.803-.843-4.198.413-.552,12.163-2.592,13.533-2.578,8.441.087,13.005,8.133,11.277,15.805-.943,4.189-3.45,6.629-7.255,8.344Z" fill="#fff"/>
      <path d="M46.539,25.143c.158.1,1.575,3.206,1.586,3.393.025.438-.84,1.376-1.065,2.036-1.761,5.152,4.202,16.995,6.745,21.876,2.134,4.095,7.204,13.845,11.982,14.712.719.13,2.291-.069,2.608.128.176.109,1.482,3.249,1.659,3.803-11.417,5.355-22.291,2.582-29.399-7.744-6.658-9.671-8.583-23.574-.826-33.252.847-1.057,5.475-5.732,6.711-4.952Z" fill="#fff"/>
      <path d="M71.989,69.81c.007-1.231-1.803-2.791-1.884-3.76-.045-.535.751-.934.985-1.478,1.42-3.296-.294-7.717-1.439-10.924-1.991-5.576-10.32-23.783-15.602-25.888-1.358-.541-3.313-.182-3.94-.563-.349-.212-1.691-3.094-1.577-3.492.173-.609,3.696-1.764,4.478-1.977,27.21-7.407,41.946,34.986,18.979,48.081Z" fill="#fff"/>
      <path d="M167.507,49.547v-4.503c3.651.313,5.395-.255,6.76-3.693,2.419-6.09,2.436-23.875,1.193-30.472-.434-2.303-1.525-5.552-4.083-6.209-.833-.214-3.825-.118-4.156-.507-.247-.29.106-3.423-.037-4.149,11.254-.313,21.137,4.324,24.354,15.692,1.742,6.157,1.579,14.258-.815,20.229-3.83,9.55-13.176,14.201-23.215,13.611Z" fill="#fff"/>
      <path d="M203.812,53.046c-.668.423-11.673-2.089-13.472-1.892.124-.446.231-2.781.334-2.883.057-.057,1.167-.014,1.614-.152,2.063-.639,3.276-1.851,4.429-3.614l16.135-32.265c-.321,3.354.673,6.644.174,9.978l-11.028,23.384c-.11.963-.221,2.059.067,2.997.36,1.172,1.864,1.556,2.06,2.128.154.451-.032,2.141-.313,2.319Z" fill="#fff"/>
      <path d="M14.65,85.003c5.902-1.021,9.924,4.55,7.955,9.884-.608,1.646-3.038,3.193.651,2.908.671-.052,2.811-.977,3.067-.826.273.161,2.278,3.431,2.104,3.724-6.637,3.597-16.791,2.321-18.819-5.978-.968-3.961.567-8.938,5.042-9.712Z" fill="#fff"/>
      <path d="M257.882,27.678l.955,9.137c-1.862,7.028-7.588,15.792-8.849,22.687-.189,1.033-.282,2.293-.071,3.319s1.41,1.996,1.482,2.372c.048.254-.742,2.496-1.335,2.326l-10.519-4.309c.617-3.573,1.412-2.117,3.463-2.97.665-.276,1.984-1.773,2.395-2.43,4.653-9.241,7.232-20.554,11.808-29.676.173-.344-.166-.607.671-.457Z" fill="#fff"/>
      <path d="M283.295,64.663l-.905-7.472c1.783-4.522,9.282-14.224,8.951-18.733-.187-2.551-2.078-1.923-.401-4.902.165-.294-.131-.53.497-.366,2.932,1.943,6.86,3.464,9.666,5.462.891.634-.211,2.359-.765,2.692-.706.423-2.058-.051-3.133.405-.546.232-1.755,1.509-2.152,2.03-4.118,5.406-7.287,14.146-11.055,20.143-.178.283-.302.714-.703.741Z" fill="#fff"/>
      <path d="M293.257,71.419c.13.09,1.591,2.559,1.599,2.716.031.601-.942,2.739-1.127,3.698-.808,4.181-.491,7.54,1.619,11.279.367.65,2.11,2.804,2.108,3.05-.003.558-2.06,2.677-2.437,3.378-.382.094-2.477-1.82-2.887-2.248-.896-.938-3.722-5.457-4.018-5.636-.765-.465-1.513.201-2.262.027-.514-.12-2.253-1.369-2.245-1.948.019-1.487,8.003-11.623,8.869-13.978.118-.303.576-.479.78-.338Z" fill="#fff"/>
      <path d="M330.852,77.504c-.144.101-2.742-.852-2.829-.974-.173-.24,1.167-4.645,1.256-5.6.375-4.022-.227-8.867-3.849-11.102,1.949-3.401,2.107-4.868,5.131-1.427,1.094,1.245,2.961,5.119,3.686,5.641.854.615,1.94.1,2.852.364.316.091,1.757,1.505,1.799,1.75.137.792-7.521,9.594-8.047,11.347Z" fill="#fff"/>
    </g>
  </g>
</svg>