<?xml version="1.0" encoding="UTF-8"?>
<svg id="b" data-name="Layer 2" xmlns="http://www.w3.org/2000/svg" width="111.463mm" height="65.733mm" viewBox="0 0 315.957 186.33">
  <g id="c" data-name="Layer 1">
    <g>
      <path d="M109.833,78.133c-6.697,0-11.162,3.721-12.65,10.12h25.152c-.744-6.399-5.209-10.12-12.501-10.12Z" fill="#fff"/>
      <path d="M260.445,80.217c-9.822,0-15.031,7.739-15.031,15.329s5.209,15.329,15.031,15.329,15.031-7.59,15.031-15.329c0-7.59-5.209-15.329-15.031-15.329Z" fill="#fff"/>
      <path d="M158.053,0C70.692,0,0,41.671,0,93.165s70.692,93.165,157.904,93.165,158.053-41.671,158.053-93.165S245.265,0,158.053,0ZM47.922,127.097c-10.12,0-17.859-2.977-23.366-9.227l-1.042-1.191,11.906-11.162,1.191,1.191c3.572,3.869,6.846,6.399,12.204,6.399,3.125,0,7.739-1.488,7.739-4.762,0-3.423-4.018-4.465-10.567-5.953-8.483-1.786-20.091-4.316-20.091-18.157s12.204-19.943,24.259-19.794c9.227,0,17.115,3.274,21.431,9.227l.893,1.191-11.906,10.715-1.042-1.488c-2.381-3.423-5.507-5.06-9.674-5.06-2.232,0-6.548.893-6.548,4.316,0,2.679,3.721,3.572,9.674,4.911,8.93,1.935,20.984,4.614,20.984,19.05,0,14.585-13.99,19.794-26.044,19.794ZM139.896,102.243h-42.862c1.488,6.251,6.548,10.12,13.246,10.12,5.655,0,10.12-2.232,13.99-6.995l1.042-1.191,12.799,9.674-1.042,1.339c-6.548,7.888-15.031,11.906-25.3,11.906-18.752,0-32.444-13.246-32.444-31.402s13.692-31.402,32.444-31.402c17.264,0,28.128,12.501,28.128,32.444v5.507ZM164.601,125.609h-17.561V42.713h17.561v82.896ZM204.189,110.875c3.869,0,7.441-1.637,9.674-4.614l1.191-1.637,11.906,12.799-1.191,1.191c-6.102,6.102-16.222,8.334-21.58,8.334-18.752,0-32.444-13.245-32.444-31.402s13.692-31.253,32.444-31.402c8.483,0,16.52,3.423,21.729,9.227l1.042,1.191-12.055,12.055-1.191-1.191c-3.274-3.423-6.548-5.209-9.525-5.209-9.822,0-15.031,7.739-15.031,15.329s5.209,15.329,15.031,15.329ZM260.445,127.097c-18.752,0-32.444-13.246-32.444-31.402s13.692-31.402,32.444-31.402,32.444,13.097,32.444,31.402c0,18.157-13.692,31.402-32.444,31.402Z" fill="#fff"/>
    </g>
  </g>
</svg>