<?xml version="1.0" encoding="UTF-8"?>
<svg id="b" data-name="Layer 2" xmlns="http://www.w3.org/2000/svg" width="122.348mm" height="39.687mm" viewBox="0 0 346.813 112.499">
  <g id="c" data-name="Layer 1">
    <g id="d" data-name="g3">
      <path id="e" data-name="path5" d="M4.154,20.139h21.844l3.556-12.066L59.305,0l-6.119,20.139h22.998l-4.117,13.953h-23.004s-8.047,26.388-9.342,30.747c-1.024,3.442.411,5.906,3.442,5.906h17.816l-4.247,14.025h-28.004c-11.837,0-20.082-7.642-16.235-20.014,3.254-10.442,9.284-30.659,9.284-30.659H0l4.154-13.958" fill="#fff"/>
      <path id="f" data-name="path7" d="M86.312,20.139h27.266s-12.565,41.539-13.454,44.482c-1.201,3.94.546,6.124,3.457,6.124h19.339l15.336-50.606h27.022l-27.947,92.36h-27.027l8.323-27.729h-29.543c-11.832,0-20.082-7.632-16.23-20.004,3.249-10.457,13.459-44.627,13.459-44.627" fill="#fff"/>
      <path id="g" data-name="path9" d="M319.479,38.651c.91-3.036-.52-4.564-2.745-4.564h-20.971c-2.568,0-3.65.874-4.565,3.915-.208.686-8.162,26.837-8.557,28.178-.92,3.036.515,4.565,2.724,4.565h20.987c2.558,0,3.65-.874,4.559-3.92.234-.769,8.286-27.243,8.567-28.174M336.089,72.46c-2.235,7.476-7.127,12.31-16.105,12.31h-47.541c-11.827,0-19.806-7.569-16.225-20.014,2.984-10.4,10.044-33.034,10.044-33.034,2.594-7.99,8.551-11.582,15.138-11.582,0,0,41.807-.005,48.227-.005,11.842,0,20.077,7.647,16.23,20.009-3.244,10.449-9.768,32.317-9.768,32.317" fill="#fff"/>
      <path id="h" data-name="path11" d="M219.506,60.438c-1.076,3.548-1.872,6.158-1.95,6.386-.899,3.047-1.996,3.92-4.554,3.92h-19.562c-2.21,0-3.65-1.529-2.735-4.565.4-1.341,8.354-27.498,8.557-28.178.915-3.041,2.002-3.915,4.564-3.915h19.562c2.21,0,3.65,1.528,2.735,4.564-.083.266-.759,2.506-1.705,5.63h26.804c.468-1.508.899-2.896,1.284-4.138,3.857-12.362-4.398-20.009-16.225-20.009-6.436,0-46.823.005-46.823.005-6.581,0-12.547,3.592-15.141,11.582,0,0-7.049,22.634-10.039,33.034-3.582,12.455,4.393,20.014,16.228,20.014h46.127c8.978,0,13.865-4.835,16.105-12.31,0,0,1.586-5.354,3.603-12.022h-26.835" fill="#fff"/>
    </g>
  </g>
</svg>