<svg width="129" height="35" viewBox="0 0 129 35" fill="none" xmlns="http://www.w3.org/2000/svg">
<path opacity="0.5" fill-rule="evenodd" clip-rule="evenodd" d="M14.6891 0C11.4264 0 8.46028 1.18644 6.0874 2.9661L22.2527 22.3941L35.4518 12.4576C34.8586 5.48729 28.9264 0 21.6594 0" fill="#F9F9F9"/>
<path fill-rule="evenodd" clip-rule="evenodd" d="M21.6594 34.9998C29.3713 34.9998 35.6001 28.771 35.6001 21.0591V20.3176L23.5874 29.2159C22.2526 30.2541 20.3247 29.9575 19.2865 28.771L2.08315 8.0083C1.19332 9.78796 0.600098 11.8642 0.600098 13.9405V20.9108C0.600098 28.6227 6.82891 34.8515 14.5408 34.8515" fill="#F9F9F9"/>
<g clip-path="url(#clip0_230_193)">
<path d="M52.7075 10.7469L53.0113 11.0073C53.1415 12.4829 53.1849 14.0236 53.1849 15.4992C53.1849 18.4938 52.7943 21.5535 52.5122 23.5716L53.0547 23.5933C55.1813 21.4667 57.156 18.0598 57.156 15.5643C57.156 13.5679 56.3314 12.2442 55.5285 11.3979L55.5719 11.1158C56.8956 10.8554 58.3495 10.7686 59.4128 10.7469C59.8685 11.0941 60.1506 11.5715 60.1506 12.4612C60.1506 13.0688 59.9987 13.8066 59.6949 14.7831C58.8052 17.6692 53.5104 24.5915 50.9498 26.1973C49.8431 26.1105 48.7798 25.7633 47.9769 25.3076C48.2156 22.5517 48.3892 19.6873 48.3892 17.0182C48.3892 15.4775 48.3024 14.067 48.1939 12.8952L46.2409 11.3545L46.2843 11.0724C47.8033 10.9205 51.1885 10.7469 52.7075 10.7469ZM64.0932 12.5697C63.2469 12.5697 62.6176 12.0272 62.6176 11.2677C62.6176 10.1176 63.746 9.4232 64.6791 9.4232C65.5254 9.4232 66.133 9.9657 66.133 10.7035C66.133 11.8753 65.0263 12.5697 64.0932 12.5697ZM67.4784 23.398C66.4368 24.5698 64.3102 26.1973 62.4874 26.1973C60.9467 26.1973 59.7532 25.3944 59.7532 23.7669C59.7532 22.9857 60.057 21.9441 60.4476 20.7072C60.8382 19.492 61.2505 18.1249 61.5326 16.5408L60.708 15.3039L60.7731 14.9784C62.7261 14.7614 64.3753 14.6746 65.9811 14.6529L66.2849 14.8699C66.2849 15.7379 66.0245 17.5824 65.5037 19.4269C64.9395 21.4233 64.0064 23.615 64.0064 24.7217C64.0064 24.917 64.0281 25.1557 64.0932 25.2425C65.0914 24.8085 66.6104 23.7235 67.4133 22.8338L67.4784 22.8989V23.398ZM76.4982 22.747C76.4982 25.2208 73.9593 26.1973 71.8544 26.1973C69.5542 26.1973 67.1672 25.4812 66.3643 24.3745C66.7766 23.3763 67.471 22.4866 68.1871 21.7488H68.4041C68.9032 23.0291 70.1401 25.6765 71.5506 25.6765C72.2016 25.6765 72.7875 25.2859 72.7875 24.483C72.7875 23.3546 71.9846 22.9857 70.943 22.3347C69.2287 21.2714 68.122 20.5119 68.122 18.9495C68.122 15.803 71.8978 14.6529 74.3933 14.6529C76.7152 14.6529 78.2559 15.4992 78.2559 16.8663C78.2559 17.7126 77.7568 18.2334 77.0407 18.6023C75.9557 18.7325 74.8924 18.7542 73.8074 18.7542L73.7423 18.5372C74.2631 17.9513 74.7839 17.3871 74.7839 16.8229C74.7839 16.1936 74.1329 15.3473 73.2649 15.3473C72.5922 15.3473 71.9195 15.803 71.9195 16.9314C71.9195 18.0598 72.6356 18.7108 73.6772 19.3618C75.3915 20.4251 76.4982 21.1846 76.4982 22.747ZM94.067 23.398C93.0254 24.5698 90.4648 26.1973 88.642 26.1973C87.1013 26.1973 86.255 25.3944 86.255 23.9839C86.255 22.8121 86.8843 20.8591 87.7957 19.058L87.4485 18.9495C87.3834 19.0797 87.0362 19.8609 86.9494 20.0345C85.5606 23.0508 84.1067 26.1973 81.0904 26.1973C79.3761 26.1973 78.4864 25.1774 78.4864 23.7669C78.4864 23.0074 79.0289 21.5969 79.5497 20.143C80.0922 18.6891 80.6347 17.2135 80.6347 16.3021C80.6347 15.9766 80.5045 15.8898 80.3092 15.8898C79.962 15.8898 79.4412 16.0851 79.0072 16.3455L78.9421 16.3021L79.0289 15.7379C80.0054 15.2171 81.3508 14.6529 82.5443 14.6529C84.1935 14.6529 84.9313 15.4992 84.9313 16.9097C84.9313 17.6909 84.4756 19.1665 84.0199 20.5553C83.5642 21.9658 83.1085 23.2895 83.1085 23.7886C83.1085 24.1792 83.3255 24.3094 83.5642 24.3094C84.0416 24.3094 84.736 23.398 85.5389 21.8356C86.4286 20.1213 87.4919 17.6258 88.642 14.6529C90.1827 14.7614 91.9404 15.5209 92.5697 16.1285C92.5697 17.6475 90.1827 22.7253 90.1827 24.917C90.1827 25.0472 90.2044 25.1774 90.2478 25.2425C92.0489 24.5047 93.2424 23.5933 94.0019 22.7904L94.067 22.8555V23.398ZM108.471 23.181C107.429 24.3528 104.652 26.1973 102.829 26.1973C101.288 26.1973 100.442 25.3944 100.442 23.9839C100.442 23.181 100.746 22.4432 101.853 20.4902L101.115 20.5553C100.247 22.6385 98.7278 26.1973 96.3191 26.1973C94.5831 26.1973 93.3462 24.4613 93.3462 22.0309C93.3462 17.6692 95.7332 14.6529 99.1835 14.6529C100.334 14.6529 101.223 15.1303 101.787 16.1068L101.57 16.6493C101.093 16.02 100.551 15.3473 99.8562 15.3473C98.8797 15.3473 98.0334 18.3419 98.0334 21.7271C98.0334 23.0942 98.2504 23.8537 98.6627 23.8537C99.0099 23.8537 99.4005 23.1376 100.203 21.228C100.811 19.8175 101.636 17.7777 102.634 14.8916C104.218 15.1086 105.954 15.9766 106.692 16.8012C106.692 17.5607 106.106 19.275 105.52 20.9459C104.956 22.6168 104.37 24.266 104.37 24.917C104.37 25.0472 104.391 25.1774 104.435 25.2425C106.236 24.5047 107.646 23.3763 108.406 22.5734L108.471 22.6385V23.181ZM110.209 26.1973C108.516 26.1973 107.475 25.2642 107.475 23.7669C107.475 22.9206 107.67 22.0309 108.126 20.6421L110.014 14.8916C110.513 13.3726 110.73 12.4829 110.838 11.6366L110.057 10.2261L110.122 9.9006C111.836 9.7053 113.529 9.5968 115.33 9.5751L115.612 9.7704C115.612 10.5733 115.2 13.199 114.05 16.8229C113.421 18.7976 111.75 23.1376 111.75 24.7217C111.75 24.917 111.793 25.1557 111.815 25.2425C112.965 24.7651 114.788 23.5716 115.525 22.747L115.591 22.8121V23.3112C114.223 24.8519 111.685 26.1973 110.209 26.1973ZM125.586 25.5897C124.197 28.9749 120.964 31.2751 117.492 31.2751C115.474 31.2751 113.26 30.6241 113.021 28.6711C113.672 27.3908 115.235 25.9586 116.515 25.3944C115.474 25.0689 114.953 24.2009 114.953 23.1159C114.953 22.3347 115.517 21.0761 116.103 19.7958C116.667 18.4938 117.231 17.1701 117.231 16.2804C117.231 15.9549 117.101 15.8681 116.906 15.8681C116.689 15.8681 116.211 15.9983 116.016 16.1285L115.951 16.0851L116.038 15.586C116.71 15.1303 117.947 14.6529 119.141 14.6529C120.79 14.6529 121.528 15.4775 121.528 16.888C121.528 17.6692 121.029 18.9929 120.551 20.2515C120.052 21.4884 119.575 22.6385 119.575 23.1376C119.575 23.5282 119.792 23.6584 120.031 23.6584C120.378 23.6584 120.899 23.0942 121.55 22.0092C122.418 20.5119 123.503 18.0815 124.588 14.8699C125.911 15.0869 127.886 15.8247 128.645 16.8012C128.385 17.4522 126.497 23.398 125.586 25.5897ZM116.776 26.7832C116.776 28.5843 117.774 30.4722 119.445 30.4722C120.031 30.4722 120.682 28.7362 121.354 26.6096C122.005 24.5047 122.678 22.0309 123.329 20.4685L122.895 20.5553C122.591 21.1629 122.266 21.7488 121.918 22.313C120.812 24.0924 119.423 25.5463 117.557 25.5463C117.34 25.5463 117.144 25.5246 116.949 25.5029C116.841 25.9152 116.776 26.3492 116.776 26.7832Z" fill="#F9F9F9"/>
</g>
<defs>
<clipPath id="clip0_230_193">
<rect width="82.6" height="35" fill="white" transform="translate(46.1001)"/>
</clipPath>
</defs>
</svg>
